<svg width="120" height="48" viewBox="0 0 120 48" fill="none" xmlns="http://www.w3.org/2000/svg">
<path d="M14.1641 24.5586C14.1641 25.7435 13.8724 26.7643 13.2891 27.6211C12.7148 28.4779 11.8854 29.1341 10.8008 29.5898C9.72526 30.0456 8.4401 30.2734 6.94531 30.2734C6.21615 30.2734 5.51888 30.2324 4.85352 30.1504C4.18815 30.0684 3.55924 29.9499 2.9668 29.7949C2.38346 29.6309 1.85026 29.4349 1.36719 29.207V26.1172C2.17839 26.4727 3.08529 26.7962 4.08789 27.0879C5.09049 27.3704 6.11133 27.5117 7.15039 27.5117C7.99805 27.5117 8.69987 27.4023 9.25586 27.1836C9.82096 26.9557 10.2402 26.6367 10.5137 26.2266C10.7871 25.8073 10.9238 25.3197 10.9238 24.7637C10.9238 24.1712 10.7643 23.6699 10.4453 23.2598C10.1263 22.8496 9.64323 22.4759 8.99609 22.1387C8.35807 21.7923 7.55599 21.4232 6.58984 21.0312C5.93359 20.7669 5.30469 20.4661 4.70312 20.1289C4.11068 19.7917 3.58203 19.3952 3.11719 18.9395C2.65234 18.4837 2.2832 17.946 2.00977 17.3262C1.74544 16.6973 1.61328 15.959 1.61328 15.1113C1.61328 13.9811 1.88216 13.015 2.41992 12.2129C2.9668 11.4108 3.73242 10.7956 4.7168 10.3672C5.71029 9.9388 6.86784 9.72461 8.18945 9.72461C9.23763 9.72461 10.222 9.83398 11.1426 10.0527C12.0723 10.2715 12.9837 10.5814 13.877 10.9824L12.8379 13.6211C12.0176 13.2839 11.2201 13.015 10.4453 12.8145C9.67969 12.6139 8.89583 12.5137 8.09375 12.5137C7.40104 12.5137 6.81315 12.6185 6.33008 12.8281C5.84701 13.0378 5.47786 13.334 5.22266 13.7168C4.97656 14.0905 4.85352 14.5371 4.85352 15.0566C4.85352 15.64 4.99479 16.1322 5.27734 16.5332C5.56901 16.9251 6.01562 17.2852 6.61719 17.6133C7.22786 17.9414 8.01172 18.306 8.96875 18.707C10.0716 19.1628 11.0059 19.6413 11.7715 20.1426C12.5462 20.6439 13.1387 21.2454 13.5488 21.9473C13.959 22.64 14.1641 23.5104 14.1641 24.5586ZM23.7207 14.5781C25.0697 14.5781 26.2272 14.8561 27.1934 15.4121C28.1595 15.9681 28.9023 16.7565 29.4219 17.7773C29.9414 18.7982 30.2012 20.0195 30.2012 21.4414V23.1641H20.0977C20.1341 24.6315 20.526 25.7617 21.2734 26.5547C22.0299 27.3477 23.0872 27.7441 24.4453 27.7441C25.4115 27.7441 26.2773 27.653 27.043 27.4707C27.8177 27.2793 28.6152 27.0013 29.4355 26.6367V29.248C28.679 29.6035 27.9089 29.8633 27.125 30.0273C26.3411 30.1914 25.4023 30.2734 24.3086 30.2734C22.8229 30.2734 21.515 29.9863 20.3848 29.4121C19.2637 28.8288 18.3841 27.9629 17.7461 26.8145C17.1172 25.666 16.8027 24.2396 16.8027 22.5352C16.8027 20.8398 17.0898 19.3997 17.6641 18.2148C18.2383 17.0299 19.0449 16.1276 20.084 15.5078C21.123 14.888 22.3353 14.5781 23.7207 14.5781ZM23.7207 16.998C22.709 16.998 21.8887 17.3262 21.2598 17.9824C20.64 18.6387 20.2754 19.6003 20.166 20.8672H27.0566C27.0475 20.1107 26.9199 19.4408 26.6738 18.8574C26.4368 18.2741 26.0723 17.8184 25.5801 17.4902C25.097 17.1621 24.4772 16.998 23.7207 16.998ZM41.4941 14.5781C41.7493 14.5781 42.0273 14.5918 42.3281 14.6191C42.6289 14.6465 42.8887 14.6829 43.1074 14.7285L42.8066 17.7363C42.6152 17.6816 42.3783 17.6406 42.0957 17.6133C41.8223 17.5859 41.5762 17.5723 41.3574 17.5723C40.7832 17.5723 40.2363 17.668 39.7168 17.8594C39.1973 18.0417 38.737 18.3242 38.3359 18.707C37.9349 19.0807 37.6204 19.5501 37.3926 20.1152C37.1647 20.6803 37.0508 21.3366 37.0508 22.084V30H33.8242V14.8652H36.3398L36.7773 17.5312H36.9277C37.2285 16.9935 37.6022 16.5013 38.0488 16.0547C38.4954 15.6081 39.0059 15.2526 39.5801 14.9883C40.1634 14.7148 40.8014 14.5781 41.4941 14.5781ZM49.3691 30L43.6133 14.8652H47.0176L50.1348 23.752C50.3353 24.3171 50.5176 24.9277 50.6816 25.584C50.8457 26.2402 50.9596 26.7917 51.0234 27.2383H51.1328C51.1966 26.7734 51.3197 26.2174 51.502 25.5703C51.6842 24.9141 51.8711 24.3079 52.0625 23.752L55.1797 14.8652H58.5703L52.8145 30H49.3691ZM64.0801 14.8652V30H60.8672V14.8652H64.0801ZM62.4941 9.06836C62.9863 9.06836 63.4102 9.20052 63.7656 9.46484C64.1302 9.72917 64.3125 10.1849 64.3125 10.832C64.3125 11.4701 64.1302 11.9258 63.7656 12.1992C63.4102 12.4635 62.9863 12.5957 62.4941 12.5957C61.9837 12.5957 61.5508 12.4635 61.1953 12.1992C60.849 11.9258 60.6758 11.4701 60.6758 10.832C60.6758 10.1849 60.849 9.72917 61.1953 9.46484C61.5508 9.20052 61.9837 9.06836 62.4941 9.06836ZM74.7852 30.2734C73.3542 30.2734 72.1146 29.9954 71.0664 29.4395C70.0182 28.8835 69.2116 28.0312 68.6465 26.8828C68.0814 25.7344 67.7988 24.276 67.7988 22.5078C67.7988 20.6667 68.1087 19.1628 68.7285 17.9961C69.3483 16.8294 70.2051 15.9681 71.2988 15.4121C72.4017 14.8561 73.6641 14.5781 75.0859 14.5781C75.9883 14.5781 76.804 14.6693 77.5332 14.8516C78.2715 15.0247 78.8958 15.2389 79.4062 15.4941L78.4492 18.0645C77.8932 17.8366 77.3236 17.6452 76.7402 17.4902C76.1569 17.3353 75.5964 17.2578 75.0586 17.2578C74.1745 17.2578 73.4362 17.4538 72.8438 17.8457C72.2604 18.2376 71.8229 18.821 71.5312 19.5957C71.2487 20.3704 71.1074 21.332 71.1074 22.4805C71.1074 23.5924 71.2533 24.5312 71.5449 25.2969C71.8366 26.0534 72.2695 26.6276 72.8438 27.0195C73.418 27.4023 74.1243 27.5938 74.9629 27.5938C75.7923 27.5938 76.5352 27.4935 77.1914 27.293C77.8477 27.0924 78.4674 26.8327 79.0508 26.5137V29.3027C78.4766 29.6309 77.8613 29.8724 77.2051 30.0273C76.5488 30.1914 75.7422 30.2734 74.7852 30.2734ZM88.6348 14.5781C89.9837 14.5781 91.1413 14.8561 92.1074 15.4121C93.0736 15.9681 93.8164 16.7565 94.3359 17.7773C94.8555 18.7982 95.1152 20.0195 95.1152 21.4414V23.1641H85.0117C85.0482 24.6315 85.4401 25.7617 86.1875 26.5547C86.944 27.3477 88.0013 27.7441 89.3594 27.7441C90.3255 27.7441 91.1914 27.653 91.957 27.4707C92.7318 27.2793 93.5293 27.0013 94.3496 26.6367V29.248C93.5931 29.6035 92.8229 29.8633 92.0391 30.0273C91.2552 30.1914 90.3164 30.2734 89.2227 30.2734C87.737 30.2734 86.429 29.9863 85.2988 29.4121C84.1777 28.8288 83.2982 27.9629 82.6602 26.8145C82.0312 25.666 81.7168 24.2396 81.7168 22.5352C81.7168 20.8398 82.0039 19.3997 82.5781 18.2148C83.1523 17.0299 83.959 16.1276 84.998 15.5078C86.0371 14.888 87.2493 14.5781 88.6348 14.5781ZM88.6348 16.998C87.623 16.998 86.8027 17.3262 86.1738 17.9824C85.554 18.6387 85.1895 19.6003 85.0801 20.8672H91.9707C91.9616 20.1107 91.834 19.4408 91.5879 18.8574C91.3509 18.2741 90.9863 17.8184 90.4941 17.4902C90.0111 17.1621 89.3913 16.998 88.6348 16.998Z" fill="#2E4DE6"/>
<path d="M58.0078 39.9609C58.0078 40.638 57.8385 41.2161 57.5 41.6953C57.1667 42.1693 56.6979 42.5312 56.0938 42.7812C55.4896 43.0312 54.7786 43.1562 53.9609 43.1562C53.5286 43.1562 53.1198 43.1354 52.7344 43.0938C52.349 43.0521 51.9948 42.9922 51.6719 42.9141C51.349 42.8359 51.0651 42.7396 50.8203 42.625V41.3516C51.2109 41.513 51.6875 41.6641 52.25 41.8047C52.8125 41.9401 53.401 42.0078 54.0156 42.0078C54.5885 42.0078 55.0729 41.9323 55.4688 41.7812C55.8646 41.625 56.1641 41.4036 56.3672 41.1172C56.5755 40.8255 56.6797 40.4766 56.6797 40.0703C56.6797 39.6797 56.5938 39.3542 56.4219 39.0938C56.25 38.8281 55.9635 38.5885 55.5625 38.375C55.1667 38.1562 54.625 37.9245 53.9375 37.6797C53.4531 37.5078 53.026 37.3203 52.6562 37.1172C52.2865 36.9089 51.9766 36.6745 51.7266 36.4141C51.4766 36.1536 51.2865 35.8516 51.1562 35.5078C51.0312 35.1641 50.9688 34.7708 50.9688 34.3281C50.9688 33.7188 51.1224 33.1979 51.4297 32.7656C51.7422 32.3281 52.1719 31.9948 52.7188 31.7656C53.2708 31.5312 53.9036 31.4141 54.6172 31.4141C55.2266 31.4141 55.7891 31.4714 56.3047 31.5859C56.8255 31.7005 57.3021 31.8542 57.7344 32.0469L57.3203 33.1875C56.9089 33.0156 56.4714 32.8724 56.0078 32.7578C55.5495 32.6432 55.0755 32.5859 54.5859 32.5859C54.0964 32.5859 53.6823 32.6589 53.3438 32.8047C53.0104 32.9453 52.7552 33.1458 52.5781 33.4062C52.401 33.6667 52.3125 33.9766 52.3125 34.3359C52.3125 34.737 52.3958 35.0703 52.5625 35.3359C52.7344 35.6016 53.0052 35.8385 53.375 36.0469C53.75 36.25 54.2448 36.4635 54.8594 36.6875C55.5312 36.9323 56.1016 37.1927 56.5703 37.4688C57.0391 37.7396 57.3958 38.0729 57.6406 38.4688C57.8854 38.8594 58.0078 39.3568 58.0078 39.9609ZM63.5781 43.1562C62.8073 43.1562 62.1276 42.9974 61.5391 42.6797C60.9505 42.362 60.4922 41.8776 60.1641 41.2266C59.8359 40.5755 59.6719 39.7552 59.6719 38.7656C59.6719 37.7292 59.8438 36.8828 60.1875 36.2266C60.5365 35.5651 61.0156 35.0755 61.625 34.7578C62.2344 34.4401 62.9271 34.2812 63.7031 34.2812C64.1302 34.2812 64.5417 34.3255 64.9375 34.4141C65.3385 34.4974 65.6667 34.6042 65.9219 34.7344L65.5312 35.8203C65.2708 35.7161 64.9688 35.6224 64.625 35.5391C64.2865 35.4557 63.9688 35.4141 63.6719 35.4141C63.0781 35.4141 62.5833 35.5417 62.1875 35.7969C61.7969 36.0521 61.5026 36.4271 61.3047 36.9219C61.112 37.4167 61.0156 38.026 61.0156 38.75C61.0156 39.4427 61.1094 40.0339 61.2969 40.5234C61.4896 41.013 61.7734 41.388 62.1484 41.6484C62.5286 41.9036 63.0026 42.0312 63.5703 42.0312C64.0234 42.0312 64.4323 41.9844 64.7969 41.8906C65.1615 41.7917 65.4922 41.6771 65.7891 41.5469V42.7031C65.5026 42.849 65.1823 42.9609 64.8281 43.0391C64.4792 43.1172 64.0625 43.1562 63.5781 43.1562ZM71.0234 34.2969C72.0443 34.2969 72.8021 34.526 73.2969 34.9844C73.7917 35.4427 74.0391 36.1745 74.0391 37.1797V43H73.0938L72.8438 41.7344H72.7812C72.5417 42.0469 72.2917 42.3099 72.0312 42.5234C71.7708 42.7318 71.4688 42.8906 71.125 43C70.7865 43.1042 70.3698 43.1562 69.875 43.1562C69.3542 43.1562 68.8906 43.0651 68.4844 42.8828C68.0833 42.7005 67.7656 42.4245 67.5312 42.0547C67.3021 41.6849 67.1875 41.2161 67.1875 40.6484C67.1875 39.7943 67.526 39.138 68.2031 38.6797C68.8802 38.2214 69.9115 37.9714 71.2969 37.9297L72.7734 37.8672V37.3438C72.7734 36.6042 72.6146 36.0859 72.2969 35.7891C71.9792 35.4922 71.5312 35.3438 70.9531 35.3438C70.5052 35.3438 70.0781 35.4089 69.6719 35.5391C69.2656 35.6693 68.8802 35.8229 68.5156 36L68.1172 35.0156C68.5026 34.8177 68.9453 34.6484 69.4453 34.5078C69.9453 34.3672 70.4714 34.2969 71.0234 34.2969ZM72.7578 38.7812L71.4531 38.8359C70.3854 38.8776 69.6328 39.0521 69.1953 39.3594C68.7578 39.6667 68.5391 40.1016 68.5391 40.6641C68.5391 41.1536 68.6875 41.5156 68.9844 41.75C69.2812 41.9844 69.6745 42.1016 70.1641 42.1016C70.9245 42.1016 71.5469 41.8906 72.0312 41.4688C72.5156 41.0469 72.7578 40.4141 72.7578 39.5703V38.7812ZM80.7344 34.2812C81.8021 34.2812 82.6536 34.6484 83.2891 35.3828C83.9245 36.1172 84.2422 37.2214 84.2422 38.6953C84.2422 39.6693 84.0964 40.487 83.8047 41.1484C83.513 41.8099 83.1016 42.3099 82.5703 42.6484C82.0443 42.987 81.4219 43.1562 80.7031 43.1562C80.25 43.1562 79.8516 43.0964 79.5078 42.9766C79.1641 42.8568 78.8698 42.6953 78.625 42.4922C78.3802 42.2891 78.1771 42.0677 78.0156 41.8281H77.9219C77.9375 42.0312 77.9557 42.276 77.9766 42.5625C78.0026 42.849 78.0156 43.099 78.0156 43.3125V46.8281H76.7109V34.4375H77.7812L77.9531 35.7031H78.0156C78.1823 35.4427 78.3854 35.2057 78.625 34.9922C78.8646 34.7734 79.1562 34.6016 79.5 34.4766C79.849 34.3464 80.2604 34.2812 80.7344 34.2812ZM80.5078 35.375C79.9141 35.375 79.4349 35.4896 79.0703 35.7188C78.7109 35.9479 78.4479 36.2917 78.2812 36.75C78.1146 37.2031 78.026 37.7734 78.0156 38.4609V38.7109C78.0156 39.4349 78.0938 40.0469 78.25 40.5469C78.4115 41.0469 78.6745 41.4271 79.0391 41.6875C79.4089 41.9479 79.9036 42.0781 80.5234 42.0781C81.0547 42.0781 81.4974 41.9349 81.8516 41.6484C82.2057 41.362 82.4688 40.9635 82.6406 40.4531C82.8177 39.9375 82.9062 39.3464 82.9062 38.6797C82.9062 37.6693 82.7083 36.8672 82.3125 36.2734C81.9219 35.6745 81.3203 35.375 80.5078 35.375ZM89.8047 34.2812C90.5339 34.2812 91.1589 34.4427 91.6797 34.7656C92.2005 35.0885 92.599 35.5417 92.875 36.125C93.151 36.7031 93.2891 37.3802 93.2891 38.1562V38.9609H87.375C87.3906 39.9661 87.6406 40.7318 88.125 41.2578C88.6094 41.7839 89.2917 42.0469 90.1719 42.0469C90.7135 42.0469 91.1927 41.9974 91.6094 41.8984C92.026 41.7995 92.4583 41.6536 92.9062 41.4609V42.6016C92.474 42.7943 92.0443 42.9349 91.6172 43.0234C91.1953 43.112 90.6953 43.1562 90.1172 43.1562C89.2943 43.1562 88.5755 42.9896 87.9609 42.6562C87.3516 42.3177 86.8776 41.8229 86.5391 41.1719C86.2005 40.5208 86.0312 39.724 86.0312 38.7812C86.0312 37.8594 86.1849 37.0625 86.4922 36.3906C86.8047 35.7135 87.2422 35.1927 87.8047 34.8281C88.3724 34.4635 89.0391 34.2812 89.8047 34.2812ZM89.7891 35.3438C89.0964 35.3438 88.5443 35.5703 88.1328 36.0234C87.7214 36.4766 87.4766 37.1094 87.3984 37.9219H91.9297C91.9245 37.4115 91.8438 36.9635 91.6875 36.5781C91.5365 36.1875 91.3047 35.8854 90.9922 35.6719C90.6797 35.4531 90.2786 35.3438 89.7891 35.3438Z" fill="#2E4DE6"/>
</svg>
